<svg id="Capa_1" data-name="Capa 1" xmlns="http://www.w3.org/2000/svg" xmlns:xlink="http://www.w3.org/1999/xlink" viewBox="0 0 200 200"><defs><style>.cls-1{fill:url(#radial-gradient);}.cls-2{fill:url(#radial-gradient-2);}.cls-3{fill:url(#radial-gradient-3);}.cls-4{fill:url(#radial-gradient-4);}.cls-5{fill:url(#radial-gradient-5);}.cls-6{fill:url(#radial-gradient-6);}</style><radialGradient id="radial-gradient" cx="77.03" cy="99.93" r="35.9" gradientUnits="userSpaceOnUse"><stop offset="0.01" stop-color="#fff"/><stop offset="0.26" stop-color="#f4f4ee"/><stop offset="0.61" stop-color="#eaeadd"/><stop offset="0.87" stop-color="#e6e6d7"/></radialGradient><radialGradient id="radial-gradient-2" cx="102.56" cy="99.93" r="36.03" xlink:href="#radial-gradient"/><radialGradient id="radial-gradient-3" cx="124.17" cy="99.93" r="35.41" xlink:href="#radial-gradient"/><radialGradient id="radial-gradient-4" cx="76.47" cy="99.36" r="35.9" xlink:href="#radial-gradient"/><radialGradient id="radial-gradient-5" cx="102" cy="99.36" r="36.03" xlink:href="#radial-gradient"/><radialGradient id="radial-gradient-6" cx="123.61" cy="99.36" r="35.41" xlink:href="#radial-gradient"/></defs><title>spoon</title><path class="cls-1" d="M80.72,76.66c-.79-3.33-6.36-26-6.36-26l-.11,0-.1.05,2.63,21.41a.34.34,0,0,1-.28.4.33.33,0,0,1-.39-.27l-4.9-21-.12,0L71,51.3l2.56,21.41s.05.34-.24.4-.37-.29-.37-.29l-4.85-21-.12,0-.11.06,2.52,21.43a.34.34,0,0,1-.27.39.35.35,0,0,1-.4-.27l-4.78-21-.11,0-.1.05S67.15,75.6,67.53,79a.57.57,0,0,0,.54.53c1,.15,3.61,1,5.69,4.37,2.25,3.46,6.8,48.32,7.62,58.07a8.82,8.82,0,0,0,5.22,7.21h0a8.87,8.87,0,0,0,2.46-8.57c-2.54-9.44-13.47-53.16-12.53-57.19s2.93-5.58,3.87-6.07A.57.57,0,0,0,80.72,76.66Zm1.34,64.86A11.74,11.74,0,0,1,82,139a21.33,21.33,0,0,0,.9,4.68,11.28,11.28,0,0,0,3.5,4.7A8.7,8.7,0,0,1,82.06,141.51ZM79.94,77.15c-.93.5-3.08,2-3.89,5.93a10,10,0,0,1,2.49-5.41c.32-.36,1.12-1.16,1.08-1.92s-.31-2.28-1-5.73c.77,3,1.39,5.5,1.61,6.45A.57.57,0,0,1,79.94,77.15Z"/><path class="cls-2" d="M109.19,82.63c3.09-3.18,5.12-8.53,5.12-14.6,0-9.76-5.26-17.68-11.76-17.68S90.8,58.27,90.8,68c0,6,2,11.36,5.08,14.55,0,.3,0,.54,0,.73a.57.57,0,0,0,.44.62c1,.33,3.38,1.47,4.85,5.16s-1.62,42.66-2.5,52.4a8.85,8.85,0,0,0,3.9,8h0a8.84,8.84,0,0,0,3.9-8c-.87-9.74-4.12-48.6-2.5-52.4s3.85-4.83,4.85-5.16a.58.58,0,0,0,.44-.62C109.22,83.13,109.21,82.9,109.19,82.63Zm-12.61.66a.53.53,0,0,1-.41-.58c0-.17,0-.4,0-.68-2.9-3-4.8-7.92-4.8-13.53.48,6.56,2.48,9.66,5.34,12.68l-.06.68a.54.54,0,0,0,.41.59c2.72,2.05,3.7,3.7,4.06,5.65C99.77,84.65,97.53,83.59,96.58,83.29Zm8.7,60a21.52,21.52,0,0,0,.08-4.77,12,12,0,0,1,.39,2.49,8.74,8.74,0,0,1-3.11,7.53A11.36,11.36,0,0,0,105.28,143.31Zm3-59.72a7.38,7.38,0,0,0-3.51,2.64,7.83,7.83,0,0,1,4-3.33s0,0,0,0A.59.59,0,0,1,108.29,83.59Zm-6.7-32.2a7.67,7.67,0,0,1,1-.06c6,0,10.92,7.35,10.92,16.43a22.12,22.12,0,0,1-2.32,10.12,28,28,0,0,0,1.63-9.58C112.81,58.82,108.18,51.39,101.59,51.39Z"/><path class="cls-3" d="M121.14,141.58c.42-5,2.84-25.28,5.88-44.06,4.73-18.8,7.17-39.94,8-43.27.87-3.57-1.94-4.62-5.23-.54-5.42,6.74-11,29.56-7.81,42.3,0,.29.07.42.08.69.24,5.81-6.17,34.49-8.59,43.49a8.87,8.87,0,0,0,2.46,8.57h0A8.81,8.81,0,0,0,121.14,141.58Zm7.74-85.43a5.78,5.78,0,0,1,.94-1.58c2-2.64,3.6-3.38,4.55-2.73-1.06-.25-2.12.47-3.08,1.39A19.3,19.3,0,0,0,128.87,56.15ZM123,97.61c-.61-.11-.66-.79-.62-1a1.32,1.32,0,0,0,.77.47l3.27.58a.3.3,0,1,1-.11.58Zm-6.82,50.25a11.3,11.3,0,0,0,3.5-4.7,21.5,21.5,0,0,0,.9-4.69,12.06,12.06,0,0,1-.05,2.52A8.72,8.72,0,0,1,116.18,147.86Z"/><path class="cls-4" d="M80.17,76.09c-.79-3.33-6.36-26-6.36-26l-.12,0-.1.06,2.63,21.41a.34.34,0,0,1-.28.39.33.33,0,0,1-.39-.27l-4.9-21-.12,0-.11.07L73,72.15s.05.34-.25.39-.37-.29-.37-.29l-4.85-21-.12,0-.11.06,2.52,21.43a.34.34,0,0,1-.27.39.35.35,0,0,1-.4-.27l-4.78-21-.11,0-.1.06S66.59,75,67,78.44a.57.57,0,0,0,.54.54c1,.15,3.61,1,5.69,4.37,2.25,3.47,6.8,48.32,7.62,58.07A8.82,8.82,0,0,0,86,148.62h0A8.87,8.87,0,0,0,88.51,140C86,130.61,75,86.88,76,82.86s2.94-5.58,3.87-6.07A.57.57,0,0,0,80.17,76.09ZM81.5,141a11.86,11.86,0,0,1-.05-2.52,21.6,21.6,0,0,0,.9,4.68,11.32,11.32,0,0,0,3.5,4.7A8.71,8.71,0,0,1,81.5,141ZM79.38,76.59c-.93.5-3.08,2-3.89,5.93A10,10,0,0,1,78,77.11c.32-.36,1.12-1.16,1.07-1.92s-.31-2.29-1-5.74c.77,3,1.39,5.51,1.61,6.45A.57.57,0,0,1,79.38,76.59Z"/><path class="cls-5" d="M108.63,82.06c3.09-3.18,5.12-8.54,5.12-14.6,0-9.76-5.26-17.68-11.76-17.68S90.24,57.7,90.24,67.46c0,6,2,11.37,5.08,14.55,0,.3,0,.54,0,.73a.57.57,0,0,0,.44.62c1,.33,3.38,1.47,4.85,5.16,1.62,3.81-1.62,42.66-2.5,52.4a8.85,8.85,0,0,0,3.9,8h0a8.85,8.85,0,0,0,3.9-8c-.87-9.74-4.12-48.6-2.5-52.4,1.47-3.69,3.85-4.83,4.85-5.16a.57.57,0,0,0,.44-.62ZM96,82.73a.54.54,0,0,1-.42-.58l0-.68c-2.9-3-4.8-7.92-4.8-13.54.48,6.56,2.48,9.66,5.34,12.68,0,.28,0,.51-.05.68a.54.54,0,0,0,.41.59c2.72,2.05,3.7,3.7,4.06,5.65C99.22,84.09,97,83,96,82.73Zm8.7,60a21.65,21.65,0,0,0,.08-4.77,12.09,12.09,0,0,1,.38,2.49,8.73,8.73,0,0,1-3.11,7.53A11.36,11.36,0,0,0,104.73,142.75Zm3-59.73a7.39,7.39,0,0,0-3.51,2.64,7.84,7.84,0,0,1,4-3.33.33.33,0,0,1,0,0A.58.58,0,0,1,107.73,83ZM101,50.82a7.24,7.24,0,0,1,1-.07c6,0,10.92,7.36,10.92,16.43a22.1,22.1,0,0,1-2.32,10.12,28,28,0,0,0,1.63-9.58C112.25,58.26,107.62,50.82,101,50.82Z"/><path class="cls-6" d="M120.58,141c.42-5,2.84-25.27,5.88-44.06,4.73-18.8,7.17-39.94,8-43.27.87-3.58-1.94-4.63-5.23-.54-5.42,6.74-11,29.56-7.81,42.3,0,.29.07.42.08.69.24,5.81-6.17,34.49-8.59,43.5a8.87,8.87,0,0,0,2.46,8.57h0A8.82,8.82,0,0,0,120.58,141Zm7.73-85.42a5.83,5.83,0,0,1,.94-1.58c2-2.64,3.6-3.38,4.55-2.73-1.07-.25-2.12.47-3.08,1.39A19.2,19.2,0,0,0,128.31,55.59ZM122.44,97c-.61-.11-.66-.79-.61-1a1.33,1.33,0,0,0,.77.47l3.27.59a.29.29,0,1,1-.11.58Zm-6.82,50.25a11.3,11.3,0,0,0,3.5-4.7,21.46,21.46,0,0,0,.9-4.68,12,12,0,0,1,0,2.52A8.71,8.71,0,0,1,115.62,147.3Z"/></svg>